<?xml version="1.0" standalone="no"?>
<!DOCTYPE svg PUBLIC "-//W3C//DTD SVG 20010904//EN"
 "http://www.w3.org/TR/2001/REC-SVG-20010904/DTD/svg10.dtd">
<svg version="1.0" xmlns="http://www.w3.org/2000/svg"
 width="559.000000pt" height="446.000000pt" viewBox="0 0 559.000000 446.000000"
 preserveAspectRatio="xMidYMid meet">

<g transform="translate(0.000000,446.000000) scale(0.100000,-0.100000)"
fill="#000000" stroke="none">
<path d="M2005 4259 c-171 -11 -373 -57 -535 -123 -82 -33 -104 -45 -102 -59
3 -19 -46 -45 -97 -52 -46 -6 -126 -58 -257 -166 -264 -219 -450 -518 -545
-874 -24 -89 -24 -85 9 -86 15 -1 -6 -7 -46 -15 -141 -25 -202 -60 -202 -115
0 -31 46 -89 66 -82 18 6 11 -90 -8 -107 -9 -8 -20 -27 -24 -42 -5 -23 0 -33
27 -59 19 -17 43 -35 54 -40 17 -6 17 -8 3 -8 -20 -1 -25 -40 -7 -58 8 -8 5
-15 -9 -24 -29 -21 -35 -54 -17 -88 18 -36 49 -54 142 -80 37 -11 57 -20 44
-20 -17 -1 -21 -4 -13 -13 5 -7 26 -55 46 -107 139 -353 367 -628 687 -829
464 -292 1020 -342 1499 -135 115 49 263 134 352 201 143 107 304 282 401 434
71 112 167 324 181 399 6 33 6 33 -10 -6 -58 -142 -129 -268 -184 -325 -21
-22 -36 -40 -33 -40 12 0 -81 -63 -113 -76 -18 -8 -46 -11 -62 -8 -24 5 -32
14 -41 45 -7 21 -16 39 -21 39 -6 0 -10 7 -10 15 0 8 5 15 12 15 9 0 9 3 1 11
-6 6 -9 27 -7 47 2 21 8 91 14 157 23 246 29 278 55 301 13 12 22 24 19 26 -2
3 95 30 216 61 202 51 223 58 267 94 72 58 81 69 92 109 10 35 6 53 -27 117
-5 10 44 2 255 -39 279 -55 504 -126 618 -196 69 -42 115 -88 115 -115 0 -14
-27 -51 -74 -101 -75 -80 -111 -135 -101 -151 7 -13 43 -2 49 15 4 11 -1 10
-22 -3 -32 -20 -32 -20 38 43 30 27 46 39 36 26 -31 -36 -1 -25 39 14 78 75
168 92 285 52 171 -57 243 -221 178 -405 -15 -40 -23 -73 -18 -73 11 0 56 68
76 115 27 63 25 178 -4 238 -45 91 -137 164 -249 197 -24 7 -43 15 -43 16 0 2
8 18 18 36 63 112 49 213 -36 272 -131 91 -451 166 -974 230 -133 16 -182 25
-195 38 -16 16 -15 19 10 42 15 14 27 29 27 35 0 5 3 16 6 25 3 9 1 16 -4 16
-6 0 -13 -9 -17 -19 -5 -18 -18 -19 -160 -20 -94 -1 -155 2 -155 8 0 5 13 23
29 39 58 58 261 71 293 19 14 -23 20 2 6 29 -24 51 -46 56 -228 49 -91 -4
-217 -9 -281 -11 l-116 -4 -26 29 c-14 16 -22 32 -19 36 8 7 -39 -3 -76 -16
-13 -5 -50 -9 -82 -9 -50 0 -61 4 -75 23 -15 21 -17 21 -29 5 -16 -22 -48 -23
-87 -3 -16 9 -34 13 -38 10 -5 -3 -23 11 -40 30 -35 40 -46 43 -61 15 -9 -16
-4 -25 27 -54 21 -20 45 -36 54 -36 8 0 25 -11 36 -24 19 -21 19 -25 6 -30 -9
-4 -17 -5 -18 -4 -1 2 -7 12 -14 23 -12 19 -12 19 -6 -1 7 -25 -1 -26 -284
-44 l-154 -10 -39 36 c-29 26 -43 32 -52 25 -9 -7 -16 -7 -25 2 -7 6 -3 -4 9
-25 11 -20 17 -38 13 -41 -4 -2 -57 -7 -118 -11 -219 -14 -666 -47 -952 -71
-160 -14 -345 -28 -411 -31 -105 -5 -120 -4 -126 11 -12 32 20 125 74 210 34
54 37 57 104 131 33 35 65 64 72 64 6 0 14 7 18 15 3 9 18 15 35 15 26 0 34 8
66 63 19 35 35 71 35 79 0 23 27 30 101 28 l66 -1 17 35 c18 39 13 81 -11 90
-23 9 -5 26 28 26 20 0 29 5 29 16 0 10 5 14 16 10 8 -3 26 1 40 10 25 17 33
36 12 30 -7 -3 -35 -7 -63 -10 -37 -4 -45 -3 -32 5 9 6 15 14 12 20 -4 5 -1 9
4 9 6 0 11 6 11 14 0 7 9 16 21 19 18 5 20 11 14 37 -7 33 4 53 38 72 14 7 17
7 13 -1 -4 -6 -2 -11 5 -11 9 0 9 -4 -1 -15 -13 -16 -4 -76 13 -87 7 -4 6 -12
-3 -22 -7 -9 -10 -19 -7 -23 8 -7 77 44 77 57 0 5 16 12 35 16 33 6 71 44 44
44 -8 0 -9 4 0 13 6 8 7 18 3 22 -4 5 -2 6 3 2 6 -3 17 -2 25 4 12 7 10 9 -7
9 -30 0 -37 16 -23 51 9 22 30 38 78 61 36 18 84 46 106 63 68 51 137 68 253
59 54 -4 108 -10 120 -15 13 -5 23 -4 25 3 7 19 246 30 269 11 8 -5 27 -13 44
-17 16 -4 52 -18 80 -30 27 -12 66 -29 85 -36 61 -25 153 -81 225 -140 122
-98 163 -123 211 -124 24 0 44 -4 44 -7 0 -4 12 -10 27 -14 44 -11 144 -73
212 -133 61 -54 63 -55 40 -19 -13 20 -73 86 -134 145 -107 105 -235 199 -370
272 -114 61 -327 133 -426 143 -20 2 -41 7 -48 11 -6 4 -19 2 -28 -6 -9 -7
-14 -8 -10 -2 11 19 -15 32 -81 40 -66 7 -98 -5 -87 -34 4 -12 3 -13 -10 -2
-18 15 -20 37 -2 43 15 5 -24 4 -138 -4z m-735 -409 c0 -5 -4 -10 -9 -10 -5 0
-12 -8 -16 -18 -3 -11 -17 -24 -31 -30 -35 -17 -53 -14 -30 3 11 8 16 15 10
15 -13 1 49 50 64 50 6 0 12 -4 12 -10z m1677 -730 c11 -29 10 -30 -17 -30
-27 0 -28 1 -17 30 6 17 14 30 17 30 3 0 11 -13 17 -30z m653 -190 c0 -5 -7
-10 -16 -10 -8 0 -12 5 -9 10 3 6 10 10 16 10 5 0 9 -4 9 -10z m43 3 c-7 -2
-19 -2 -25 0 -7 3 -2 5 12 5 14 0 19 -2 13 -5z m185 -111 c6 -18 -53 -39 -154
-57 -112 -19 -145 -20 -138 -1 10 27 54 47 141 65 88 18 143 16 151 -7z m-88
-109 c-47 -21 -208 -39 -222 -25 -15 15 106 38 207 40 l50 0 -35 -15z m10
-118 c-21 -25 -175 -69 -197 -56 -17 10 -16 10 4 11 12 0 23 4 25 9 3 10 127
48 162 50 15 1 16 -2 6 -14z m71 -54 c-21 -38 -143 -93 -211 -95 -25 -1 -50
-4 -56 -8 -15 -10 -35 14 -26 29 4 6 57 24 117 41 61 17 121 35 135 41 40 16
52 14 41 -8z m-1048 -333 c-22 -24 -65 -81 -95 -128 -84 -130 -104 -179 -75
-181 9 0 9 -2 -1 -6 -9 -3 -10 -9 -2 -18 5 -7 12 -31 14 -54 2 -24 11 -48 19
-54 9 -7 17 -38 20 -79 7 -77 -4 -97 -79 -149 -24 -16 -44 -35 -44 -41 0 -6 9
-3 20 7 18 17 20 17 14 2 -3 -9 -2 -17 3 -17 20 0 73 -54 73 -74 0 -12 5 -27
11 -33 13 -13 -5 -74 -34 -113 -43 -57 -201 -145 -297 -164 -14 -3 -45 -10
-70 -17 -25 -6 -103 -11 -175 -11 -186 -1 -303 30 -430 115 -53 35 -114 109
-120 147 -7 42 15 92 52 118 14 9 32 25 41 34 13 14 19 15 31 5 12 -9 13 -9 7
1 -4 6 -2 12 3 12 6 0 11 12 11 27 0 14 8 35 17 46 17 18 16 21 -5 57 -12 22
-22 44 -22 51 0 15 -88 149 -98 149 -4 0 -31 22 -60 50 -40 38 -51 55 -48 72
3 13 8 49 11 80 5 49 3 60 -14 77 l-21 21 23 0 c150 0 1212 86 1287 104 8 2
28 4 45 5 l29 1 -41 -42z m-1720 -89 c30 -7 48 -18 52 -30 4 -10 13 -19 20
-19 12 0 11 -8 -3 -45 -20 -56 -61 -75 -146 -70 -59 4 -126 28 -126 46 0 5
-11 15 -25 21 -14 6 -25 16 -25 21 0 5 -9 18 -21 28 -16 14 -18 22 -10 37 9
18 22 20 125 21 62 1 134 -3 159 -10z m377 -9 c0 -5 -5 -10 -11 -10 -5 0 -7 5
-4 10 3 6 8 10 11 10 2 0 4 -4 4 -10z m1516 -357 c3 -16 7 -34 10 -41 2 -7 -3
-15 -11 -19 -9 -3 -15 -10 -14 -17 2 -13 0 -19 -48 -136 -36 -90 -79 -140
-119 -140 -39 0 -48 69 -14 105 17 18 19 27 11 49 -14 36 2 69 44 89 32 15 96
86 108 120 9 26 26 21 33 -10z"/>
<path d="M2340 2057 c-19 -9 -26 -22 -28 -50 -3 -38 -3 -38 30 -35 18 2 33 8
34 13 0 6 3 17 6 25 16 40 16 49 2 54 -19 7 -14 8 -44 -7z"/>
<path d="M2231 1870 c9 -40 54 -108 72 -109 7 -1 -20 48 -33 59 -4 3 -12 21
-20 40 -20 53 -30 58 -19 10z"/>
<path d="M2225 1739 c-4 -6 -5 -12 -2 -15 2 -3 7 2 10 11 7 17 1 20 -8 4z"/>
<path d="M2430 1714 c6 -14 8 -30 5 -35 -3 -5 0 -21 8 -35 l14 -27 -2 34 c-4
47 -16 89 -26 89 -5 0 -4 -12 1 -26z"/>
<path d="M3050 3729 c0 -5 5 -7 10 -4 6 3 10 8 10 11 0 2 -4 4 -10 4 -5 0 -10
-5 -10 -11z"/>
<path d="M2467 3723 c-11 -21 27 -75 75 -108 29 -19 48 -35 42 -35 -7 0 -9
-13 -5 -36 5 -31 12 -38 46 -50 47 -16 55 -17 74 -5 11 7 5 22 -30 72 -24 35
-47 66 -51 67 -5 2 -8 9 -8 16 0 6 -12 17 -27 23 -16 6 -47 23 -70 37 -23 15
-44 23 -46 19z"/>
<path d="M2015 3679 c-11 -17 1 -21 15 -4 8 9 8 15 2 15 -6 0 -14 -5 -17 -11z"/>
<path d="M2060 3685 c-1 -5 -2 -14 -1 -18 1 -5 -2 -6 -7 -3 -15 9 -62 -18 -62
-35 0 -9 -7 -22 -15 -29 -11 -9 -12 -17 -4 -31 12 -24 79 -26 114 -3 26 17 57
19 160 9 117 -10 129 25 25 71 -62 26 -97 29 -136 12 -22 -10 -28 -10 -32 0
-2 6 -10 12 -17 12 -7 0 -16 6 -18 13 -3 6 -6 8 -7 2z"/>
<path d="M1562 3628 c-15 -15 -16 -38 -2 -38 6 0 16 -11 22 -25 6 -14 22 -28
35 -31 13 -4 23 -9 23 -13 0 -4 14 -12 30 -18 17 -6 30 -16 30 -22 0 -8 -6 -9
-19 -1 -22 11 -34 0 -25 -24 4 -10 -5 -26 -25 -45 -17 -16 -31 -34 -31 -40 0
-14 0 -14 -39 0 -37 13 -41 29 -7 29 41 0 76 18 76 39 0 20 -21 39 -89 80 -21
13 -44 34 -50 47 -13 29 -34 30 -72 3 -20 -14 -38 -19 -57 -15 -31 7 -48 -2
-53 -27 -2 -10 -17 -26 -33 -35 -43 -25 -78 -63 -71 -80 3 -8 -2 -20 -12 -27
-14 -10 -15 -16 -5 -27 6 -8 9 -18 5 -22 -4 -4 -1 -5 7 -1 25 9 253 33 267 28
8 -3 11 -13 8 -24 -3 -10 -1 -27 4 -38 9 -15 7 -20 -9 -24 -11 -3 -20 -11 -20
-18 0 -7 3 -10 6 -7 3 4 14 -2 25 -13 12 -12 33 -19 59 -19 28 0 46 -7 62 -24
21 -22 58 -34 118 -39 21 -2 25 3 28 31 3 26 10 36 37 49 31 15 36 15 58 1 13
-9 67 -22 121 -28 86 -11 99 -11 115 4 12 11 36 16 79 16 59 0 62 1 67 28 3
15 10 42 15 61 6 23 5 41 -2 55 -6 12 -11 22 -10 24 14 20 -32 27 -49 6 -14
-17 -39 -18 -74 -2 -22 10 -27 9 -40 -8 -12 -16 -17 -17 -34 -6 -12 6 -29 12
-40 12 -11 0 -23 9 -26 20 -3 11 -10 20 -15 20 -5 0 -7 7 -3 15 3 10 0 15 -8
13 -10 -2 -13 6 -12 25 2 25 -1 27 -33 27 -24 0 -34 -4 -34 -16 0 -11 -6 -14
-21 -9 -19 6 -20 5 -9 -15 6 -11 18 -24 26 -27 19 -7 18 -33 -2 -33 -8 0 -12
-4 -9 -10 3 -5 1 -10 -5 -10 -6 0 -8 -4 -5 -10 3 -5 -3 -10 -15 -10 -14 0 -25
10 -35 33 -7 18 -23 41 -34 51 -12 11 -21 31 -21 48 0 26 -7 32 -55 54 -31 13
-58 31 -61 39 -4 8 -12 15 -19 15 -7 0 -15 5 -17 10 -2 7 -8 6 -16 -2z m-97
-95 c-4 -10 -7 -34 -6 -54 2 -36 -19 -66 -37 -55 -11 7 -3 66 9 66 5 0 9 11 9
24 0 20 8 31 29 35 2 1 0 -7 -4 -16z m-175 -91 c0 -13 -12 -22 -22 -16 -10 6
-1 24 13 24 5 0 9 -4 9 -8z m-50 -32 c0 -5 -2 -10 -4 -10 -3 0 -8 5 -11 10 -3
6 -1 10 4 10 6 0 11 -4 11 -10z m938 -56 c-10 -10 -23 -14 -34 -10 -16 6 -16
8 -4 16 8 6 24 10 35 10 18 0 18 -1 3 -16z m-252 -23 c-18 -7 -66 -3 -66 5 0
2 19 4 43 3 30 0 36 -3 23 -8z"/>
<path d="M1960 3521 c0 -5 9 -7 20 -4 11 3 20 7 20 9 0 2 -9 4 -20 4 -11 0
-20 -4 -20 -9z"/>
<path d="M4700 2135 c-14 -16 -3 -20 19 -6 8 5 9 11 3 15 -5 3 -15 -1 -22 -9z"/>
<path d="M4615 2060 c-3 -6 1 -7 9 -4 18 7 21 14 7 14 -6 0 -13 -4 -16 -10z"/>
<path d="M4527 1956 c-72 -26 -217 -142 -203 -164 3 -5 -67 -58 -155 -118
-163 -109 -191 -132 -148 -119 13 4 27 13 31 19 14 22 20 -4 8 -34 -10 -23
-10 -34 -1 -43 17 -17 14 -93 -5 -111 -29 -29 -55 -38 -95 -31 -42 7 -69 -4
-109 -47 -20 -21 -25 -62 -14 -104 3 -12 25 -30 50 -42 39 -20 44 -25 44 -57
0 -27 -7 -39 -30 -57 -16 -12 -30 -25 -30 -30 0 -22 45 -3 106 45 88 69 104
77 131 66 57 -21 59 -101 4 -169 -36 -46 -37 -46 -12 -53 11 -3 21 -17 25 -39
5 -27 14 -38 42 -52 30 -14 39 -14 52 -4 12 10 14 10 8 1 -4 -8 -2 -13 7 -13
8 0 18 7 21 16 8 22 8 26 -4 19 -16 -10 -11 1 7 16 11 10 14 10 9 2 -4 -7 -3
-13 3 -13 5 0 15 14 23 30 7 16 17 30 22 30 5 0 22 -16 39 -35 33 -39 96 -63
109 -42 4 6 8 8 8 4 0 -16 40 15 55 43 15 29 11 60 -7 60 -6 0 -3 11 6 25 17
26 21 39 8 31 -4 -2 -19 11 -32 31 -51 75 -15 153 72 153 45 0 49 3 235 219
115 134 146 160 171 145 34 -22 26 -65 -28 -148 -28 -43 -49 -80 -47 -83 7 -6
77 78 96 117 72 142 44 299 -73 415 -110 109 -285 161 -399 121z m68 -66 c17
-28 -42 -92 -180 -194 -44 -33 -97 -72 -117 -88 l-37 -28 -31 31 c-17 18 -28
35 -23 39 4 4 46 34 93 67 47 33 123 87 170 121 83 60 112 72 125 52z m228
-28 c16 -18 15 -22 -13 -79 -29 -57 -67 -97 -258 -268 -41 -36 -43 -37 -49
-17 -3 12 -9 19 -14 16 -5 -3 -7 1 -4 8 6 16 -2 28 -38 55 l-27 21 32 27 c18
14 40 32 48 38 8 7 65 53 125 103 151 124 166 131 198 96z m-453 -52 c-24 -19
-40 -25 -40 -15 0 5 51 34 60 34 3 0 -6 -8 -20 -19z m588 -112 c34 -34 -14
-126 -150 -285 -126 -147 -140 -162 -134 -134 6 31 -9 70 -42 104 l-27 28 151
150 c148 145 175 164 202 137z m-512 -150 c4 -6 3 -8 -4 -4 -5 3 -13 0 -15 -6
-3 -8 -6 -6 -6 5 -1 19 14 23 25 5z m-293 -23 c-3 -9 -8 -14 -10 -11 -3 3 -2
9 2 15 9 16 15 13 8 -4z m249 3 c-19 -19 -14 -32 6 -17 9 7 -7 -11 -35 -41
-38 -38 -56 -51 -64 -43 -13 13 47 76 64 66 7 -3 9 -2 4 2 -6 8 19 45 32 45 3
0 0 -5 -7 -12z m-292 -30 c0 -10 3 -9 9 1 5 7 11 9 14 4 4 -6 -4 -15 -16 -20
-19 -9 -23 -8 -24 8 -1 11 2 19 8 19 5 0 9 -6 9 -12z m176 -100 c-1 -14 -7
-23 -18 -23 -9 0 -20 -4 -24 -8 -4 -4 -12 -7 -18 -7 -5 0 -1 6 9 14 11 8 26
11 34 8 10 -4 13 -1 8 10 -3 9 -3 19 0 22 10 9 10 8 9 -16z m-26 -42 c0 -2 -8
-10 -17 -17 -16 -13 -17 -12 -4 4 13 16 21 21 21 13z m-40 -36 c0 -21 -24 -28
-35 -10 -8 14 3 30 21 30 8 0 14 -9 14 -20z m341 -24 c-7 -8 -10 -19 -7 -24 3
-6 -2 -16 -11 -23 -15 -12 -16 -12 -8 1 5 8 10 20 10 25 2 18 17 46 23 41 3
-3 -1 -12 -7 -20z"/>
<path d="M3941 1494 c-15 -11 -21 -23 -18 -35 3 -11 1 -19 -4 -19 -5 0 -9 -5
-9 -11 0 -5 4 -8 9 -5 5 4 11 1 13 -6 4 -10 11 -10 34 0 l29 13 -25 -22 c-17
-14 -19 -19 -7 -15 9 3 17 1 17 -4 0 -16 26 -11 43 8 10 10 14 22 10 26 -4 4
-1 11 7 16 10 7 11 10 3 10 -7 0 -13 5 -13 11 0 13 -40 48 -55 49 -6 0 -21 -7
-34 -16z"/>
<path d="M4542 1133 c-18 -7 -33 -49 -25 -68 3 -9 12 -14 20 -11 8 3 11 1 8
-4 -8 -13 19 -40 40 -40 35 0 55 20 55 55 0 33 -32 71 -51 59 -4 -2 -10 0 -14
6 -7 11 -13 11 -33 3z"/>
</g>
</svg>
